<svg xmlns="http://www.w3.org/2000/svg" xmlns:xlink="http://www.w3.org/1999/xlink" width="12" height="17" viewBox="0 0 12 17"><defs><clipPath id="a"><path d="M8-13H8a2,2,0,0,0-2-2,2,2,0,0,0-2,2,2,2,0,0,0,2,2,2,2,0,0,0,2-2Zm2,0h0A4,4,0,0,1,6-9a4,4,0,0,1-4-4,4,4,0,0,1,4-4,4.005,4.005,0,0,1,4,4ZM2,0,3.177-4.847C3.493-6.008,3.793-6,5-6H7C8.2-6,8.509-6,8.823-4.847L10,0h2L10.753-5.373C10.2-7.4,9.105-8,7-8H5c-2.106,0-3.2.6-3.75,2.627L0,0Z" fill="#fff" stroke="#b7b7b7" stroke-width="1" clip-rule="evenodd"/></clipPath></defs><g transform="translate(0 17)" clip-path="url(#a)"><path d="M-5-22H17V5H-5Z" fill="#fff"/></g></svg>