<svg xmlns="http://www.w3.org/2000/svg" xmlns:xlink="http://www.w3.org/1999/xlink" width="24" height="22.661" viewBox="0 0 24 22.661">
  <defs>
    <clipPath id="clip-path">
      <path id="Path_10850" data-name="Path 10850" d="M584.023-696.5c2.985.79,5.562.554,9.462-.486a24.517,24.517,0,0,1,10.547-.514v-10.014a17.253,17.253,0,0,0-9.482.383,22.705,22.705,0,0,1-10.526.564C584.023-704.5,583.968-699,584.023-696.5ZM594-709.053a19.508,19.508,0,0,1,12,0v14a21.1,21.1,0,0,0-12,0c-3.567.951-7.183,1.686-12,0v-14A21.436,21.436,0,0,0,594-709.053ZM587.5-700a1.5,1.5,0,0,0,1.5-1.5,1.5,1.5,0,0,0-1.5-1.5,1.5,1.5,0,0,0-1.5,1.5A1.5,1.5,0,0,0,587.5-700Zm13-1a1.5,1.5,0,0,0,1.5-1.5,1.5,1.5,0,0,0-1.5-1.5,1.5,1.5,0,0,0-1.5,1.5A1.5,1.5,0,0,0,600.5-701Zm-8.5-3c0,1.549,2,3,2,3.5s-1.931.489-2,.5v2c.444-.074,4-.5,4-2.5,0-1-2-2.5-2-3s1.932-.5,2-.5v-2C593.5-706,592-705,592-704Zm-2.586-8,1.293,1.293-1.414,1.414L585.586-713l3.707-3.707,1.414,1.414L589.414-714h3.917a3.421,3.421,0,0,1,2.411,1.128l1.026,1.232-1.537,1.28-1.026-1.232a1.485,1.485,0,0,0-.874-.407Z" transform="translate(-582 716.707)" fill="none" clip-rule="evenodd"/>
    </clipPath>
    <clipPath id="clip-path-2">
      <path id="Path_10849" data-name="Path 10849" d="M582-693h24v-24H582Z" transform="translate(-582 717)" fill="none"/>
    </clipPath>
  </defs>
  <g id="Group_6468" data-name="Group 6468" transform="translate(0 0)" clip-path="url(#clip-path)">
    <g id="Group_6467" data-name="Group 6467" transform="translate(0 -0.293)" clip-path="url(#clip-path-2)">
      <path id="Path_10848" data-name="Path 10848" d="M577-721.707h34v32.661H577Z" transform="translate(-582 717)" fill="#515a64"/>
    </g>
  </g>
</svg>
