<svg xmlns="http://www.w3.org/2000/svg" width="72.582" height="72.579" viewBox="0 0 72.582 72.579">
  <path id="ic_bank" d="M110.389,88.172a16.633,16.633,0,0,0-3.856-21.049V57.264h1.512a1.512,1.512,0,0,0,1.512-1.512V51.216h1.512a1.512,1.512,0,0,0,.862-2.752L77.153,24.27a1.512,1.512,0,0,0-1.724,0L40.65,48.464a1.512,1.512,0,0,0,.862,2.752h1.512v4.536a1.512,1.512,0,0,0,1.512,1.512h1.512V81.458H44.536a1.512,1.512,0,0,0-1.512,1.512v4.809A4.536,4.536,0,0,0,40,92.043v3.024a1.512,1.512,0,0,0,1.512,1.512H111.07a1.512,1.512,0,0,0,1.512-1.512V92.043A4.536,4.536,0,0,0,110.389,88.172ZM106.533,54.24h-12.1V51.216h12.1Zm-3.024,3.024v7.878a16.481,16.481,0,0,0-6.049-1.754V57.264ZM76.291,27.354l29.955,20.837H46.336Zm-16.633,54.1H58.145V57.264h1.512a1.512,1.512,0,0,0,1.512-1.512V51.216h6.048v4.536a1.512,1.512,0,0,0,1.512,1.512h1.512V81.458H68.73a1.512,1.512,0,0,0-1.512,1.512v4.536H61.17V82.97A1.512,1.512,0,0,0,59.658,81.458Zm10.585,3.024h9.723a16.5,16.5,0,0,0,1.195,3.024H70.242V84.482Zm3.024-3.024V57.264h6.049V81.458ZM80.827,54.24H70.242V51.216h12.1V54.24Zm1.512,3.024h1.512a1.512,1.512,0,0,0,1.512-1.512V51.216h6.049v4.536a1.512,1.512,0,0,0,1.512,1.512h1.512v6.124a16.633,16.633,0,0,0-12.1,7.016ZM46.049,51.216h12.1V54.24h-12.1Zm9.073,6.049V81.458H49.073V57.264ZM46.049,84.482h12.1v3.024h-12.1Zm-3.024,9.073V92.043a1.512,1.512,0,0,1,1.512-1.512H83.126a16.77,16.77,0,0,0,3.281,3.024H43.024Zm66.533,0h-4.083a16.756,16.756,0,0,0,3.175-2.888,1.512,1.512,0,0,1,.907,1.376Zm-13.609,0a13.609,13.609,0,1,1,13.609-13.609A13.609,13.609,0,0,1,95.948,93.555Zm3.024-21.17H97.46V69.361H94.436v3.024H92.924A3.024,3.024,0,0,0,89.9,75.41v3.024a3.024,3.024,0,0,0,3.024,3.024h6.048v3.024H92.924V82.97H89.9v1.512a3.024,3.024,0,0,0,3.024,3.024h1.512v3.024H97.46V87.506h1.512A3.024,3.024,0,0,0,102,84.482V81.458a3.024,3.024,0,0,0-3.024-3.024H92.924V75.41h6.048v1.512H102V75.41A3.024,3.024,0,0,0,98.973,72.385Z" transform="translate(-40 -24)" fill="#2f2f2f"/>
</svg>
