<svg xmlns="http://www.w3.org/2000/svg" xmlns:xlink="http://www.w3.org/1999/xlink" width="12.79" height="14.207" viewBox="0 0 12.79 14.207"><defs><clipPath id="a"><path d="M489.42-355.214h9.945v-9.945H489.42Zm11.367-11.365,0,11.369a1.416,1.416,0,0,1-1.419,1.417h-9.948A1.418,1.418,0,0,1,488-355.211l0-11.369h2.133V-368h1.421v1.421h5.683V-368h1.421v1.421Zm-9.947,5.683h1.421v1.421h-1.421Zm2.841,0H495.1v1.421h-1.421Zm2.841,0h1.421v1.421h-1.421Zm-5.683,2.841h1.421v1.421h-1.421Zm2.841,0H495.1v1.421h-1.421Zm2.841,0h1.421v1.421h-1.421Z" transform="translate(0)" fill="#2f2f2f" clip-rule="evenodd"/></clipPath><clipPath id="b"><path d="M485-351.952h17.048V-369H485Z" transform="translate(-485 369)" fill="#2f2f2f"/></clipPath></defs><g transform="translate(-487.997 368)" clip-path="url(#a)"><g transform="translate(485.868 -368.71)" clip-path="url(#b)"><path d="M483-373H502.89v21.31H483Z" transform="translate(-484.42 370.159)" fill="#2f2f2f"/></g></g></svg>