<svg xmlns="http://www.w3.org/2000/svg" width="7.549" height="8.386" viewBox="0 0 7.549 8.386">
  <path id="Path_11336" data-name="Path 11336" d="M488.837-360.452h5.87v-5.87h-5.87Zm6.71-6.709v6.711a.836.836,0,0,1-.838.837h-5.872a.837.837,0,0,1-.838-.837v-6.711h1.259V-368h.839v.839h3.354V-368h.839v.839Zm-5.871,3.354h.839v.839h-.839Zm1.677,0h.839v.839h-.839Zm1.677,0h.839v.839h-.839Zm-3.354,1.677h.839v.839h-.839Zm1.677,0h.839v.839h-.839Zm1.677,0h.839v.839h-.839Z" transform="translate(-487.998 368)" fill="#aaa" fill-rule="evenodd"/>
</svg>
