<svg xmlns="http://www.w3.org/2000/svg" width="23.997" height="24" viewBox="0 0 23.997 24">
  <path id="Shape" d="M12.076,24h0a1.607,1.607,0,0,1-1.185-.519l-.416-.457A1.624,1.624,0,0,0,9.284,22.5a1.6,1.6,0,0,0-.629.128l-.575.242A1.619,1.619,0,0,1,7.451,23a1.6,1.6,0,0,1-1.532-1.128l-.173-.593a1.582,1.582,0,0,0-1.463-1.128l-.625-.024a1.6,1.6,0,0,1-1.183-.59A1.545,1.545,0,0,1,2.152,18.3l.1-.608a1.549,1.549,0,0,0-.818-1.637l-.555-.292a1.563,1.563,0,0,1-.8-1.024,1.537,1.537,0,0,1,.253-1.255l.361-.5a1.537,1.537,0,0,0-.014-1.823l-.372-.5A1.536,1.536,0,0,1,.035,9.423,1.571,1.571,0,0,1,.821,8.381l.551-.3a1.556,1.556,0,0,0,.795-1.648l-.114-.6a1.539,1.539,0,0,1,.3-1.233,1.6,1.6,0,0,1,1.174-.608l.624-.035A1.582,1.582,0,0,0,5.6,2.812l.164-.593A1.593,1.593,0,0,1,7.3,1.065a1.612,1.612,0,0,1,.609.119l.58.233a1.594,1.594,0,0,0,.606.119A1.611,1.611,0,0,0,10.3,1l.412-.463A1.617,1.617,0,0,1,13.107.523l.416.457a1.627,1.627,0,0,0,1.192.521,1.6,1.6,0,0,0,.628-.128l.575-.243A1.624,1.624,0,0,1,16.547,1a1.58,1.58,0,0,1,1.532,1.129l.174.593a1.582,1.582,0,0,0,1.463,1.128l.625.024a1.6,1.6,0,0,1,1.182.589A1.547,1.547,0,0,1,21.847,5.7l-.1.607a1.551,1.551,0,0,0,.819,1.638l.554.292a1.561,1.561,0,0,1,.8,1.022,1.539,1.539,0,0,1-.252,1.257l-.362.5a1.538,1.538,0,0,0,.014,1.822l.373.5a1.534,1.534,0,0,1,.27,1.249,1.566,1.566,0,0,1-.79,1.037l-.551.3a1.556,1.556,0,0,0-.793,1.648l.114.6a1.538,1.538,0,0,1-.3,1.232,1.6,1.6,0,0,1-1.174.609l-.626.034a1.585,1.585,0,0,0-1.448,1.147l-.164.593a1.594,1.594,0,0,1-1.538,1.154,1.613,1.613,0,0,1-.608-.119l-.58-.233a1.586,1.586,0,0,0-.607-.12,1.61,1.61,0,0,0-1.2.537l-.412.462A1.608,1.608,0,0,1,12.076,24ZM8.987,14.656c-.141,0-.211.128-.282.348-.085.257-.16.522-.232.779L8.412,16c-.124.451-.075.557.352.758a6.074,6.074,0,0,0,1.745.491c.472.073.486.089.491.573,0,.212,0,.432.005.65a.391.391,0,0,0,.427.437c.163,0,.328.007.491.007s.328,0,.491-.007a.371.371,0,0,0,.407-.413c0-.1,0-.2,0-.3,0-.2.006-.4,0-.6a.468.468,0,0,1,.416-.535,3.329,3.329,0,0,0,1.715-1.078,2.889,2.889,0,0,0,.648-2.423,3.2,3.2,0,0,0-1.63-2.2,14.107,14.107,0,0,0-1.461-.655l-.265-.107a3.692,3.692,0,0,1-.947-.52.835.835,0,0,1-.359-.764.866.866,0,0,1,.562-.669,1.656,1.656,0,0,1,.581-.118c.084,0,.168-.006.251-.006a4.471,4.471,0,0,1,1.925.429.721.721,0,0,0,.292.09c.128,0,.205-.088.284-.326.1-.3.187-.6.272-.9l0-.015.06-.209a.4.4,0,0,0-.262-.525,5.551,5.551,0,0,0-1.373-.4c-.62-.091-.62-.091-.625-.693V5.957c-.005-.866-.005-.866-.888-.866h-.257l-.129,0c-.417.01-.487.079-.5.491v.549c-.005.535-.005.535-.51.714l-.026.009A2.909,2.909,0,0,0,8.447,9.538a2.733,2.733,0,0,0,1.587,2.629,9.463,9.463,0,0,0,1.365.623c.2.08.413.163.617.25a3.13,3.13,0,0,1,.725.418.961.961,0,0,1-.238,1.7,2.353,2.353,0,0,1-.934.187,2.825,2.825,0,0,1-.341-.021,5.725,5.725,0,0,1-1.939-.568A.733.733,0,0,0,8.987,14.656Z" transform="translate(0)" fill="#9b9b9b"/>
</svg>
