<svg xmlns="http://www.w3.org/2000/svg" xmlns:xlink="http://www.w3.org/1999/xlink" width="16" height="16" viewBox="0 0 16 16"><defs><clipPath id="a"><path d="M253.323-770.323a1.105,1.105,0,0,0,1.562,0L261-776.438l6.115,6.115a1.105,1.105,0,0,0,1.562,0,1.105,1.105,0,0,0,0-1.562L262.562-778l6.115-6.115a1.105,1.105,0,0,0,0-1.562,1.105,1.105,0,0,0-1.562,0L261-779.562l-6.115-6.115a1.105,1.105,0,0,0-1.562,0,1.105,1.105,0,0,0,0,1.562L259.438-778l-6.115,6.115A1.105,1.105,0,0,0,253.323-770.323Z" fill="none" clip-rule="evenodd"/></clipPath><clipPath id="b"><path d="M247-764h28v-28H247Z" fill="none"/></clipPath><clipPath id="c"><rect width="26" height="26" transform="translate(248 -791)" fill="none"/></clipPath><clipPath id="d"><path d="M252-769h18v-18H252Z" fill="none"/></clipPath></defs><g transform="translate(-253 786)" clip-path="url(#a)"><g clip-path="url(#b)"><g clip-path="url(#c)"><g clip-path="url(#d)"><path d="M248-791h26v26H248Z"/></g></g></g></g></svg>