<svg xmlns="http://www.w3.org/2000/svg" xmlns:xlink="http://www.w3.org/1999/xlink" width="12.945" height="12.945" viewBox="0 0 12.945 12.945"><defs><clipPath id="a"><path d="M253.261-773.316a.894.894,0,0,0,1.264,0l4.948-4.948,4.948,4.948a.894.894,0,0,0,1.264,0,.894.894,0,0,0,0-1.264l-4.948-4.948,4.948-4.948a.894.894,0,0,0,0-1.264.894.894,0,0,0-1.264,0l-4.948,4.948-4.948-4.948a.894.894,0,0,0-1.264,0,.894.894,0,0,0,0,1.264l4.948,4.948-4.948,4.948A.894.894,0,0,0,253.261-773.316Z" transform="translate(-253 786)" fill="#707070" clip-rule="evenodd"/></clipPath><clipPath id="b"><path d="M247-769.346h22.654V-792H247Z" transform="translate(-247 792)" fill="#707070"/></clipPath><clipPath id="c"><rect width="21.036" height="21.036" fill="#707070"/></clipPath><clipPath id="d"><path d="M252-772.437h14.563V-787H252Z" transform="translate(-252 787)" fill="#707070"/></clipPath></defs><g clip-path="url(#a)"><g transform="translate(-4.854 -4.854)" clip-path="url(#b)"><g transform="translate(0.809 0.809)" clip-path="url(#c)"><g transform="translate(3.236 3.236)" clip-path="url(#d)"><path d="M248-791h21.036v21.036H248Z" transform="translate(-251.236 787.764)" fill="#707070"/></g></g></g></g></svg>