<svg xmlns="http://www.w3.org/2000/svg" width="10.091" height="12.42" viewBox="0 0 10.091 12.42">
  <path id="Fill_199" data-name="Fill 199" d="M7.762,12.42H2.329A1.554,1.554,0,0,1,.776,10.867V3.881A.777.777,0,0,1,0,3.105V2.329a.777.777,0,0,1,.776-.777H3.105V.776A.777.777,0,0,1,3.881,0H6.21a.777.777,0,0,1,.776.776v.776H9.315a.777.777,0,0,1,.776.777v.776a.777.777,0,0,1-.776.776v6.986A1.554,1.554,0,0,1,7.762,12.42ZM1.552,3.881v6.986a.777.777,0,0,0,.777.776H7.762a.777.777,0,0,0,.776-.776V3.881ZM1.164,2.329a.388.388,0,1,0,0,.776H8.927a.388.388,0,0,0,0-.776ZM4.269.776a.389.389,0,0,0-.388.388v.388H6.21V1.164A.389.389,0,0,0,5.822.776ZM6.986,10.867a.389.389,0,0,1-.388-.388V5.822a.388.388,0,0,1,.776,0v4.657A.389.389,0,0,1,6.986,10.867Zm-1.941,0a.389.389,0,0,1-.388-.388V5.822a.388.388,0,0,1,.777,0v4.657A.389.389,0,0,1,5.045,10.867Zm-1.94,0a.389.389,0,0,1-.388-.388V5.822a.388.388,0,0,1,.776,0v4.657A.389.389,0,0,1,3.105,10.867Z" fill="#f50052"/>
</svg>
