<svg xmlns="http://www.w3.org/2000/svg" xmlns:xlink="http://www.w3.org/1999/xlink" width="18.281" height="20.109" viewBox="0 0 18.281 20.109"><defs><clipPath id="a"><path d="M794.453-153.687h-9.141v10.969h9.141Zm.914-1.828a.914.914,0,0,1,.914.914v12.8a.914.914,0,0,1-.914.914H784.4a.914.914,0,0,1-.914-.914v-12.8a.914.914,0,0,1,.914-.914Zm-12.8-.914v12.8h-1.828v-13.711a.914.914,0,0,1,.914-.914h10.969v1.828Zm-2.742-2.742v12.8H778v-13.711a.914.914,0,0,1,.914-.914h10.969v1.828Z" fill="#2f2f2f" clip-rule="evenodd"/></clipPath><clipPath id="b"><path d="M776-140.062h21.938V-162H776Z" transform="translate(-776 162)" fill="#2f2f2f"/></clipPath></defs><g transform="translate(-778 161)" clip-path="url(#a)"><g transform="translate(776.172 -161.914)" clip-path="url(#b)"><path d="M773-166h27.422v29.25H773Z" transform="translate(-775.742 162.344)" fill="#2f2f2f"/></g></g></svg>