<svg xmlns="http://www.w3.org/2000/svg" xmlns:xlink="http://www.w3.org/1999/xlink" width="20.659" height="12.021" viewBox="0 0 20.659 12.021">
  <defs>
    <clipPath id="clip-path">
      <path id="Path_11565" data-name="Path 11565" d="M7.054-6.783A4.446,4.446,0,0,0,7-6.09,3.976,3.976,0,0,0,10.784-1.98a3.974,3.974,0,0,0,3.8-4.111,4.433,4.433,0,0,0-.111-.99A7.034,7.034,0,0,1,16.532-5.29,5.927,5.927,0,0,1,10.784.02,5.9,5.9,0,0,1,5.128-4.812,7.038,7.038,0,0,1,7.054-6.783Zm14.286.146L19.865-5.286C16.962-8.453,14.468-10,11-10,7.617-10,5.019-8.369,2.138-5.3L.681-6.674C3.906-10.1,6.924-12,11-12,15.156-12,18.095-10.178,21.34-6.637Z" fill="#b7b7b7" clip-rule="evenodd"/>
    </clipPath>
  </defs>
  <g id="Group_7006" data-name="Group 7006" transform="translate(-0.68 12)">
    <g id="Group_7005" data-name="Group 7005" clip-path="url(#clip-path)">
      <path id="Path_11564" data-name="Path 11564" d="M-4.319-17H26.34V5.02H-4.319Z" fill="#b7b7b7"/>
    </g>
  </g>
</svg>
