<svg xmlns="http://www.w3.org/2000/svg" width="16" height="16" viewBox="0 0 16 16"><path d="M15.091,3.455h1.089A1.82,1.82,0,0,1,18,5.275v10.9A1.82,1.82,0,0,1,16.179,18H3.821A1.82,1.82,0,0,1,2,16.179V5.275A1.82,1.82,0,0,1,3.821,3.455H4.909V2.727a.727.727,0,1,1,1.455,0v.727H7.818V2.727a.727.727,0,1,1,1.455,0v.727h1.455V2.727a.727.727,0,1,1,1.455,0v.727h1.455V2.727a.727.727,0,1,1,1.455,0v.727Zm0,1.455v.727a.727.727,0,0,1-1.455,0V4.909H12.182v.727a.727.727,0,0,1-1.455,0V4.909H9.273v.727a.727.727,0,0,1-1.455,0V4.909H6.364v.727a.727.727,0,0,1-1.455,0V4.909H3.821a.365.365,0,0,0-.366.366v10.9a.366.366,0,0,0,.366.366H16.179a.365.365,0,0,0,.366-.366V5.275a.366.366,0,0,0-.366-.366ZM5.636,9.636a.727.727,0,0,1,0-1.455h7.636a.727.727,0,1,1,0,1.455Zm0,2.545a.727.727,0,1,1,0-1.455h8.727a.727.727,0,0,1,0,1.455Zm0,2.545a.727.727,0,1,1,0-1.455h5.091a.727.727,0,0,1,0,1.455Z" transform="translate(-2 -2)" fill="#fff"/></svg>