<svg xmlns="http://www.w3.org/2000/svg" width="16" height="16" viewBox="0 0 16 16"><path d="M8.545,17.273A.727.727,0,0,1,7.818,18h-4A1.816,1.816,0,0,1,2,16.179V10A3.393,3.393,0,0,1,3.087,7.649L9.529,2.173a.727.727,0,0,1,.942,0l6.442,5.476A3.392,3.392,0,0,1,18,10V16.18A1.817,1.817,0,0,1,16.181,18h-4a.727.727,0,0,1-.727-.727V12.909H8.545Zm7.636-.727a.363.363,0,0,0,.364-.366V10a1.968,1.968,0,0,0-.575-1.24L10,3.682,4.029,8.757A1.975,1.975,0,0,0,3.455,10v6.182a.361.361,0,0,0,.361.366H7.091V12.182a.727.727,0,0,1,.727-.727h4.364a.727.727,0,0,1,.727.727v4.364Z" transform="translate(-2 -2)" fill="#2f2f2f"/></svg>