<svg xmlns="http://www.w3.org/2000/svg" width="20.302" height="20.302" viewBox="0 0 20.302 20.302">
  <path id="ic_bank" d="M59.689,41.95a4.653,4.653,0,0,0-1.079-5.888V33.3h.423a.423.423,0,0,0,.423-.423V31.613h.423a.423.423,0,0,0,.241-.77l-9.728-6.767a.423.423,0,0,0-.482,0l-9.728,6.767a.423.423,0,0,0,.241.77h.423v1.269a.423.423,0,0,0,.423.423h.423v6.767h-.423a.423.423,0,0,0-.423.423V41.84A1.269,1.269,0,0,0,40,43.033v.846a.423.423,0,0,0,.423.423H59.879a.423.423,0,0,0,.423-.423v-.846A1.269,1.269,0,0,0,59.689,41.95Zm-1.079-9.491H55.227v-.846h3.384Zm-.846.846v2.2a4.61,4.61,0,0,0-1.692-.491V33.3Zm-7.613-8.366,8.379,5.828H41.772ZM45.5,40.072h-.423V33.3H45.5a.423.423,0,0,0,.423-.423V31.613h1.692v1.269a.423.423,0,0,0,.423.423h.423v6.767h-.423a.423.423,0,0,0-.423.423v1.269H45.922V40.5A.423.423,0,0,0,45.5,40.072Zm2.961.846h2.72a4.614,4.614,0,0,0,.334.846H48.459v-.846Zm.846-.846V33.3H51v6.767Zm2.115-7.613H48.459v-.846h3.384v.846Zm.423.846h.423a.423.423,0,0,0,.423-.423V31.613h1.692v1.269a.423.423,0,0,0,.423.423h.423v1.713a4.653,4.653,0,0,0-3.384,1.963ZM41.692,31.613h3.384v.846H41.692ZM44.23,33.3v6.767H42.538V33.3Zm-2.538,7.613h3.384v.846H41.692Zm-.846,2.538v-.423a.423.423,0,0,1,.423-.423H52.063a4.691,4.691,0,0,0,.918.846H40.846Zm18.611,0H58.314a4.687,4.687,0,0,0,.888-.808.423.423,0,0,1,.254.385Zm-3.807,0a3.807,3.807,0,1,1,3.807-3.807A3.807,3.807,0,0,1,55.65,43.456Zm.846-5.922h-.423v-.846h-.846v.846H54.8a.846.846,0,0,0-.846.846v.846a.846.846,0,0,0,.846.846H56.5v.846H54.8v-.423h-.846v.423a.846.846,0,0,0,.846.846h.423v.846h.846v-.846H56.5a.846.846,0,0,0,.846-.846v-.846a.846.846,0,0,0-.846-.846H54.8V38.38H56.5V38.8h.846V38.38A.846.846,0,0,0,56.5,37.534Z" transform="translate(-40 -24)" fill="#252941"/>
</svg>
