<svg xmlns="http://www.w3.org/2000/svg" width="20.289" height="15.217" viewBox="0 0 20.289 15.217"><path d="M17.753,15.217H2.536A2.539,2.539,0,0,1,0,12.681V2.536A2.539,2.539,0,0,1,2.536,0H17.753a2.539,2.539,0,0,1,2.536,2.536V12.681A2.539,2.539,0,0,1,17.753,15.217ZM3.17,11.413a.634.634,0,1,0,0,1.268h7.608a.634.634,0,1,0,0-1.268Zm0-2.536a.634.634,0,1,0,0,1.268h7.608a.634.634,0,1,0,0-1.268ZM13.949,2.536A1.27,1.27,0,0,0,12.681,3.8V6.34a1.269,1.269,0,0,0,1.268,1.268h2.536A1.269,1.269,0,0,0,17.753,6.34V3.8a1.27,1.27,0,0,0-1.268-1.269Zm1.9,3.8H14.583a.635.635,0,0,1-.635-.634V4.438a.635.635,0,0,1,.635-.634h1.268a.635.635,0,0,1,.634.634V5.706A.635.635,0,0,1,15.851,6.34Z" fill="#131314"/></svg>