<svg xmlns="http://www.w3.org/2000/svg" xmlns:xlink="http://www.w3.org/1999/xlink" width="11.715" height="19.281" viewBox="0 0 11.715 19.281"><defs><clipPath id="a"><path d="M6.587-5.018l-.73,1.3-.73-1.3c-.04-.072-.115-.207-.22-.4-.173-.315-.366-.671-.573-1.06C3.742-7.585,3.149-8.739,2.595-9.88q-.365-.752-.691-1.462C.688-13.992,0-15.958,0-17.143A5.857,5.857,0,0,1,5.857-23a5.857,5.857,0,0,1,5.857,5.857c0,1.184-.688,3.151-1.9,5.8q-.325.709-.691,1.462c-.554,1.14-1.147,2.295-1.74,3.405-.208.389-.4.744-.573,1.06C6.7-5.225,6.628-5.09,6.587-5.018ZM5.9-7.262c.584-1.093,1.167-2.23,1.711-3.349q.357-.735.675-1.428a16.943,16.943,0,0,0,1.751-5.1,4.184,4.184,0,0,0-4.184-4.184,4.184,4.184,0,0,0-4.184,4.184,16.943,16.943,0,0,0,1.751,5.1q.317.691.675,1.428c.544,1.119,1.128,2.255,1.711,3.349l.046.087Zm-.046-8.207a1.674,1.674,0,0,1-1.674-1.674,1.674,1.674,0,0,1,1.674-1.674,1.674,1.674,0,0,1,1.674,1.674A1.674,1.674,0,0,1,5.857-15.469Z" transform="translate(0 23)" fill="#b7b7b7" clip-rule="evenodd"/></clipPath></defs><g transform="translate(0 23)"><g transform="translate(0 -23)" clip-path="url(#a)"><path d="M-5-28H15.083V-.351H-5Z" transform="translate(0.816 23.816)" fill="#b7b7b7"/></g></g></svg>