<svg xmlns="http://www.w3.org/2000/svg" width="27.342" height="16.464" viewBox="0 0 27.342 16.464">
  <g id="Mastercard" transform="translate(0 0)">
    <path id="Path_15" data-name="Path 15" d="M858.9,14.229a8.077,8.077,0,0,0,5.483,2.134,8.232,8.232,0,0,0,0-16.463A8.077,8.077,0,0,0,858.9,2.034a8.237,8.237,0,0,0,0,12.2Z" transform="translate(-845.221 0.1)" fill="#e9b040"/>
    <path id="Path_16" data-name="Path 16" d="M2047.5,979.954a.253.253,0,0,1,.254-.254.256.256,0,0,1,.268.254.259.259,0,0,1-.268.268A.256.256,0,0,1,2047.5,979.954Zm.254.213a.217.217,0,0,0,.211-.212.2.2,0,0,0-.211-.2.2.2,0,0,0-.2.2A.216.216,0,0,0,2047.754,980.167Zm-.028-.086h-.056v-.24h.1a.086.086,0,0,1,.057.014c.028.014.028.028.028.056s-.014.056-.042.056l.056.113h-.071l-.028-.1h-.042v-.042h.056c.014,0,.014-.014.014-.028s0-.014-.014-.028h-.056Z" transform="translate(-2021.246 -967.136)" fill="#e9b040"/>
    <path id="Path_17" data-name="Path 17" d="M16.321,7.361c-.028-.3-.085-.58-.141-.876h-5a8.575,8.575,0,0,1,.226-.862h4.535q-.148-.446-.339-.876H11.756c.141-.3.3-.591.467-.876h2.9a7.309,7.309,0,0,0-.622-.862H12.844a8.031,8.031,0,0,1,.833-.876,8.208,8.208,0,1,0-5.5,14.328,8.113,8.113,0,0,0,5.5-2.134,7.763,7.763,0,0,0,.819-.862H12.844a9.785,9.785,0,0,1-.622-.876h2.9a6.672,6.672,0,0,0,.481-.876H11.756c-.127-.282-.254-.565-.354-.862h4.537a8.89,8.89,0,0,0,.24-.876,8.72,8.72,0,0,0,.141-.876c.028-.286.042-.574.042-.862a8.555,8.555,0,0,0-.041-.88Z" transform="translate(0 0.001)" fill="#cc2131"/>
    <path id="Path_18" data-name="Path 18" d="M2047.5,770.568a.256.256,0,0,1,.254-.268.259.259,0,0,1,.268.268.268.268,0,0,1-.268.268A.264.264,0,0,1,2047.5,770.568Zm.254.2a.2.2,0,1,0,0-.395.2.2,0,1,0,0,.395Zm-.028-.086h-.056v-.226h.155c.028.014.028.042.028.07a.076.076,0,0,1-.042.056l.056.1h-.071l-.028-.085h-.042v-.042h.028c.014,0,.028,0,.028-.014s.014-.014.014-.028a.014.014,0,0,0-.014-.014c0-.014-.014,0-.028,0h-.028Z" transform="translate(-2021.246 -760.422)" fill="#fff"/>
    <path id="Path_19" data-name="Path 19" d="M80,478.413l-.155.9a1.7,1.7,0,0,0-.791-.226c-.664,0-1.131.65-1.131,1.568,0,.636.31,1.017.833,1.017a1.735,1.735,0,0,0,.749-.212l-.155.946a2.951,2.951,0,0,1-.777.127c-.96,0-1.554-.693-1.554-1.808,0-1.484.819-2.53,1.993-2.53a1.739,1.739,0,0,1,.409.042l.354.085c.113.044.141.058.226.086Zm-2.854.622H77.06c-.3,0-.467.141-.735.551l.085-.523H75.6l-.551,3.392h.89c.324-2.077.409-2.43.833-2.43h.056a3.542,3.542,0,0,1,.339-.974l-.026-.015Zm-5.115,3.377a1.837,1.837,0,0,1-.636.113.653.653,0,0,1-.707-.749,2.363,2.363,0,0,1,.028-.3l.056-.339.042-.268.382-2.317h.876l-.1.509h.453l-.113.833h-.454l-.24,1.413a.529.529,0,0,0-.014.141c0,.169.085.24.3.24a.586.586,0,0,0,.24-.028l-.112.749Zm-3.406-2.276a.988.988,0,0,0,.664.946c.368.169.424.226.424.368,0,.211-.155.31-.509.31a2.647,2.647,0,0,1-.791-.127l-.127.777.042.014.155.028a.922.922,0,0,0,.24.028,3.289,3.289,0,0,0,.481.028c.932,0,1.371-.354,1.371-1.131a.939.939,0,0,0-.622-.946c-.382-.169-.424-.212-.424-.368,0-.183.155-.268.439-.268a5.517,5.517,0,0,1,.636.042l.127-.777a5.123,5.123,0,0,0-.777-.071c-.99,0-1.343.524-1.328,1.145Zm18.143,2.318h-.833l.042-.326a1.059,1.059,0,0,1-.819.368c-.65,0-1.073-.551-1.073-1.4,0-1.131.664-2.091,1.441-2.091a1.012,1.012,0,0,1,.848.467l.2-1.187h.876l-.678,4.169Zm-1.3-.791c.41,0,.692-.481.692-1.145,0-.438-.155-.664-.467-.664-.4,0-.692.467-.692,1.131,0,.451.156.678.467.678Zm-10.725.719a2.908,2.908,0,0,1-.918.141,1.346,1.346,0,0,1-1.5-1.526c0-1.159.65-2.021,1.54-2.021a1.136,1.136,0,0,1,1.2,1.23,3.422,3.422,0,0,1-.113.848H73.2a.275.275,0,0,0-.014.1c0,.4.268.594.777.594a1.946,1.946,0,0,0,.918-.212l-.141.848Zm-.494-2.02v-.169a.392.392,0,0,0-.424-.439c-.282,0-.481.212-.565.608Zm-9,2.091h-.876l.509-3.208-1.145,3.208h-.608l-.071-3.18-.537,3.18H61.7l.692-4.169h1.272l.042,2.586.848-2.586h1.385l-.692,4.169Zm2.19-1.512c-.085,0-.127-.014-.2-.014-.495,0-.749.183-.749.523a.3.3,0,0,0,.31.339c.368,0,.622-.34.636-.848Zm.65,1.512h-.735l.014-.354a1.1,1.1,0,0,1-.932.41.821.821,0,0,1-.805-.918c0-.833.565-1.314,1.554-1.314.1,0,.226.014.368.028a.712.712,0,0,0,.028-.212c0-.226-.155-.31-.565-.31a2.926,2.926,0,0,0-.735.085l-.127.042-.085.014.127-.763a3.565,3.565,0,0,1,1.06-.169c.763,0,1.173.339,1.173.989a4.279,4.279,0,0,1-.071.678l-.2,1.2-.028.212-.014.169-.014.127-.017.085Zm13.339-1.512c-.1,0-.141-.014-.2-.014-.509,0-.763.183-.763.523a.308.308,0,0,0,.326.339c.353,0,.621-.34.635-.848Zm.65,1.512h-.735l.014-.354a1.1,1.1,0,0,1-.932.41.821.821,0,0,1-.805-.918c0-.833.565-1.314,1.554-1.314a3.536,3.536,0,0,1,.354.028.9.9,0,0,0,.042-.212c0-.226-.155-.31-.565-.31a3.035,3.035,0,0,0-.749.085l-.113.042-.085.014.127-.763a3.565,3.565,0,0,1,1.06-.169c.763,0,1.159.339,1.159.989a3.038,3.038,0,0,1-.071.678l-.183,1.2-.028.212-.028.169-.014.127,0,.085Zm2.373-3.42h-.085c-.3,0-.467.141-.735.551l.085-.523H82.91l-.537,3.392h.876c.326-2.077.41-2.43.833-2.43h.056a3.541,3.541,0,0,1,.339-.974l-.027-.015Z" transform="translate(-60.909 -472.067)" fill="#fff"/>
  </g>
</svg>
