<svg xmlns="http://www.w3.org/2000/svg" xmlns:xlink="http://www.w3.org/1999/xlink" width="20.465" height="21.318" viewBox="0 0 20.465 21.318"><defs><clipPath id="a"><path d="M-1-2.535H19.465V-23H-1Z" transform="translate(1 23)" fill="#e0e0e0"/></clipPath><clipPath id="b"><path d="M5.812-3.313,4-1.565a.853.853,0,0,1-1.185,0L1.009-3.313a3.267,3.267,0,0,1,0-4.723,3.474,3.474,0,0,1,4.8,0A3.267,3.267,0,0,1,5.812-3.313ZM4.627-4.54a1.562,1.562,0,0,0,0-2.27,1.769,1.769,0,0,0-2.433,0,1.562,1.562,0,0,0,0,2.27L3.411-3.364Z" transform="translate(0 9)" fill="#ffd300"/></clipPath><clipPath id="c"><path d="M-12,10.465H8.465V-10H-12Z" transform="translate(12 10)" fill="#ffd300"/></clipPath></defs><g transform="translate(-24.147 -499.535)"><g transform="translate(25 501.24)"><g transform="translate(-0.853 -0.853)" clip-path="url(#a)"><path d="M-5-27H22.287V.289H-5Z" transform="translate(1.589 23.589)" fill="#e0e0e0"/></g><path d="M17.054-18.589a.853.853,0,0,1,.853-.853.853.853,0,0,1,.853.853v14.5a.853.853,0,0,1-1.291.731L13.643-5.656,9.819-3.361a.853.853,0,0,1-.877,0L5.116-5.656,1.291-3.361A.853.853,0,0,1,0-4.093v-14.5a.853.853,0,0,1,.414-.731l4.264-2.558a.853.853,0,0,1,.912.022l2.558,1.705a.853.853,0,0,1,.237,1.183.853.853,0,0,1-1.183.237L5.092-20.138,1.705-18.106V-5.6L4.678-7.382a.853.853,0,0,1,.877,0L9.38-5.087,13.2-7.382a.853.853,0,0,1,.877,0L17.054-5.6ZM5.969-10.062a.853.853,0,0,1-.853.853.853.853,0,0,1-.853-.853v-7.675a.853.853,0,0,1,.853-.853.853.853,0,0,1,.853.853Zm4.264,1.705A.853.853,0,0,1,9.38-7.5a.853.853,0,0,1-.853-.853v-5.969a.853.853,0,0,1,.853-.853.853.853,0,0,1,.853.853ZM14.5-10.062a.853.853,0,0,1-.853.853.853.853,0,0,1-.853-.853v-1.705a.853.853,0,0,1,.853-.853.853.853,0,0,1,.853.853Z" transform="translate(0 22)" fill="#2f2f2f"/></g><g transform="translate(34.38 486.535)"><g transform="translate(0 13)" clip-path="url(#b)"><g transform="translate(-10.233 -0.853)" clip-path="url(#c)"><path d="M-5-14H10.349V2.2H-5Z" transform="translate(10.969 10.589)" fill="#ffd300"/></g></g></g></g></svg>