<svg xmlns="http://www.w3.org/2000/svg" xmlns:xlink="http://www.w3.org/1999/xlink" width="17.95" height="11.932" viewBox="0 0 17.95 11.932"><defs><clipPath id="a"><path d="M486.513-702.9c2.232.591,4.16.414,7.077-.363a18.338,18.338,0,0,1,7.888-.385v-7.49a12.9,12.9,0,0,0-7.092.287,16.98,16.98,0,0,1-7.873.422C486.513-708.886,486.472-704.771,486.513-702.9Zm7.462-9.389a14.591,14.591,0,0,1,8.975,0v10.471a15.783,15.783,0,0,0-8.975,0,13.906,13.906,0,0,1-8.975,0v-10.471A16.033,16.033,0,0,0,493.975-712.292Zm-4.861,6.771a1.122,1.122,0,0,0,1.122-1.122,1.122,1.122,0,0,0-1.122-1.122,1.122,1.122,0,0,0-1.122,1.122A1.122,1.122,0,0,0,489.113-705.521Zm9.723-.748a1.122,1.122,0,0,0,1.122-1.122,1.122,1.122,0,0,0-1.122-1.122,1.122,1.122,0,0,0-1.122,1.122A1.122,1.122,0,0,0,498.836-706.269Zm-6.357-2.244c0,1.158,1.5,2.244,1.5,2.618s-1.444.365-1.5.374v1.5c.332-.055,2.992-.374,2.992-1.87,0-.748-1.5-1.87-1.5-2.244s1.445-.374,1.5-.374v-1.5C493.6-710.008,492.479-709.26,492.479-708.513Z" transform="translate(0 0)" fill="#fff" clip-rule="evenodd"/></clipPath><clipPath id="b"><path d="M485-699.05h17.95V-717H485Z" transform="translate(-485 717)" fill="#fff"/></clipPath></defs><g transform="translate(-485 713)" clip-path="url(#a)"><g transform="translate(485 -715.992)" clip-path="url(#b)"><path d="M480-718h25.429v19.411H480Z" transform="translate(-483.74 717.252)" fill="#fff"/></g></g></svg>