<svg xmlns="http://www.w3.org/2000/svg" width="20.226" height="24" viewBox="0 0 20.226 24">
  <g id="social-color-1-logo-paypal" transform="translate(-0.484)">
    <path id="Shape" d="M3.8,0h6.77c3.634,0,5,1.84,4.792,4.547-.348,4.463-3.047,6.931-6.626,6.931H6.932c-.491,0-.821.324-.954,1.206L5.2,17.8c-.05.332-.225.528-.488.551H.47c-.4,0-.542-.306-.437-.967L2.625.971A1.035,1.035,0,0,1,3.8,0Z" transform="translate(5.323 5.648)" fill="#009de2"/>
    <path id="Shape-2" data-name="Shape" d="M4.411,0h6.777C13.1,0,15.36.062,16.874,1.4a4.587,4.587,0,0,1,1.42,3.84c-.416,5.175-3.511,8.073-7.661,8.073H7.29c-.569,0-.946.377-1.106,1.4l-.933,5.933c-.06.385-.227.612-.532.639H.545c-.463,0-.628-.354-.507-1.122L3.044,1.126A1.2,1.2,0,0,1,4.411,0Z" transform="translate(0.484)" fill="#113984"/>
    <path id="Shape-3" data-name="Shape" d="M0,8.461,1.183.971A1.035,1.035,0,0,1,2.362,0h6.77a6.611,6.611,0,0,1,2.736.5C11.187,5.1,8.209,7.661,4.308,7.661H.966C.526,7.661.2,7.886,0,8.461Z" transform="translate(6.765 5.648)" fill="#172c70"/>
  </g>
</svg>
