<svg xmlns="http://www.w3.org/2000/svg" xmlns:xlink="http://www.w3.org/1999/xlink" width="19.123" height="16.181" viewBox="0 0 19.123 16.181">
  <defs>
    <clipPath id="clip-path">
      <path id="Path_10493" data-name="Path 10493" d="M1.471-41.794H4.618l.4-1.2A1.471,1.471,0,0,1,6.414-44h6.294a1.471,1.471,0,0,1,1.4,1.006l.4,1.2h3.147a1.471,1.471,0,0,1,1.471,1.471V-29.29a1.471,1.471,0,0,1-1.471,1.471H1.471A1.471,1.471,0,0,1,0-29.29V-40.323A1.471,1.471,0,0,1,1.471-41.794Zm0,.735a.735.735,0,0,0-.735.735V-29.29a.735.735,0,0,0,.735.735H17.652a.735.735,0,0,0,.735-.735V-40.323a.735.735,0,0,0-.735-.735H14.5a.735.735,0,0,1-.7-.5l-.4-1.2a.735.735,0,0,0-.7-.5H6.414a.735.735,0,0,0-.7.5l-.4,1.2a.735.735,0,0,1-.7.5Zm8.09,11.032a4.781,4.781,0,0,1-4.781-4.781,4.781,4.781,0,0,1,4.781-4.781,4.781,4.781,0,0,1,4.781,4.781A4.781,4.781,0,0,1,9.561-30.026Zm0-.735a4.045,4.045,0,0,0,4.045-4.045,4.045,4.045,0,0,0-4.045-4.045,4.045,4.045,0,0,0-4.045,4.045A4.045,4.045,0,0,0,9.561-30.761Zm2.191-4.306a2.206,2.206,0,0,0-1.221-1.719,2.206,2.206,0,0,0-2.106.091.368.368,0,0,1-.5-.129.368.368,0,0,1,.12-.5,2.928,2.928,0,0,1,1.469-.42l.046,0a2.943,2.943,0,0,1,2.914,2.532,2.943,2.943,0,0,1-1.93,3.184A2.943,2.943,0,0,1,7.04-33.288l-.015-.026a2.928,2.928,0,0,1-.406-1.492.368.368,0,0,1,.368-.368.368.368,0,0,1,.368.368,2.206,2.206,0,0,0,1.18,1.953,2.206,2.206,0,0,0,2.277-.135,2.206,2.206,0,0,0,.94-2.078Zm-4.4-6.726h4.413a.368.368,0,0,1,.368.368.368.368,0,0,1-.368.368H7.355a.368.368,0,0,1-.368-.368A.368.368,0,0,1,7.355-41.794Z" transform="translate(0 44)" fill="#c7c7c7"/>
    </clipPath>
    <clipPath id="clip-path-2">
      <path id="Path_10492" data-name="Path 10492" d="M-854-134.193h514.839V-752H-854Z" transform="translate(854 752)" fill="#c7c7c7"/>
    </clipPath>
  </defs>
  <g id="Group_6200" data-name="Group 6200" transform="translate(0)" clip-path="url(#clip-path)">
    <g id="Group_6199" data-name="Group 6199" transform="translate(-314.052 -260.362)" clip-path="url(#clip-path-2)">
      <g id="Group_6197" data-name="Group 6197" transform="translate(314.052 260.362)" opacity="0">
        <g id="Group_6196" data-name="Group 6196">
          <path id="Path_10490" data-name="Path 10490" d="M0,0H19.123V16.181H0Z" fill="#c7c7c7"/>
        </g>
      </g>
      <g id="Group_6198" data-name="Group 6198" transform="translate(314.052 260.362)">
        <path id="Path_10491" data-name="Path 10491" d="M0,0H19.123V16.181H0Z" fill="#c7c7c7"/>
      </g>
    </g>
  </g>
</svg>
