<svg xmlns="http://www.w3.org/2000/svg" xmlns:xlink="http://www.w3.org/1999/xlink" width="14.142" height="14.142" viewBox="0 0 14.142 14.142"><defs><clipPath id="a"><path d="M253.2-776.2a.691.691,0,0,0,.976,0L258-780.024l3.822,3.822a.691.691,0,0,0,.976,0,.691.691,0,0,0,0-.976L258.976-781l3.822-3.822a.691.691,0,0,0,0-.976.691.691,0,0,0-.976,0L258-781.976l-3.822-3.822a.691.691,0,0,0-.976,0,.691.691,0,0,0,0,.976L257.024-781l-3.822,3.822A.691.691,0,0,0,253.2-776.2Z" fill="#3389ff" clip-rule="evenodd"/></clipPath><clipPath id="b"><path d="M247-774.5h17.5V-792H247Z" transform="translate(-247 792)" fill="#3389ff"/></clipPath><clipPath id="c"><rect width="16.25" height="16.25" fill="#3389ff"/></clipPath><clipPath id="d"><path d="M252-775.75h11.25V-787H252Z" transform="translate(-252 787)" fill="#3389ff"/></clipPath></defs><g transform="translate(-727.613 376.888) rotate(45)" clip-path="url(#a)"><g transform="translate(249.25 -789.75)" clip-path="url(#b)"><g transform="translate(0.625 0.625)" clip-path="url(#c)"><g transform="translate(2.5 2.5)" clip-path="url(#d)"><path d="M248-791h16.25v16.25H248Z" transform="translate(-250.5 788.5)" fill="#3389ff"/></g></g></g></g></svg>