<svg xmlns="http://www.w3.org/2000/svg" width="16" height="16" viewBox="0 0 16 16"><path d="M16.976,4.176h0a2.255,2.255,0,0,1,0,4.267v9.3a.762.762,0,0,1-1.524,0v-9.3a2.255,2.255,0,0,1,0-4.267V3.262a.762.762,0,0,1,1.524,0v.914Zm-.762,2.9a.72.72,0,0,0,.762-.762.762.762,0,0,0-1.524,0c0,.457.571.571.762.762ZM5.548,8.367h0a2.255,2.255,0,0,1,0,4.267v5.1a.72.72,0,0,1-.762.762.72.72,0,0,1-.762-.762v-5.1a2.255,2.255,0,0,1,0-4.267v-5.1A.72.72,0,0,1,4.786,2.5a.72.72,0,0,1,.762.762v5.1Zm-.762,2.9a.762.762,0,0,0,0-1.524.762.762,0,1,0,0,1.524Zm6.476-8v9.3a2.255,2.255,0,0,1,0,4.267v.914a.762.762,0,0,1-1.524,0v-.914a2.255,2.255,0,0,1,0-4.267v-9.3a.762.762,0,0,1,1.524,0ZM10.5,15.452a.762.762,0,1,0-.762-.762.72.72,0,0,0,.762.762Z" transform="translate(-2.5 -2.5)" fill="#fff"/></svg>