<svg xmlns="http://www.w3.org/2000/svg" width="20" height="20" viewBox="0 0 20 20">
  <g id="icon" transform="translate(-18 -516)">
    <rect id="bg" width="20" height="20" transform="translate(18 516)" fill="rgba(255,96,96,0)"/>
    <path id="path" d="M10,18a8,8,0,1,1,8-8A8,8,0,0,1,10,18Zm0-1.455A6.545,6.545,0,1,0,3.455,10,6.546,6.546,0,0,0,10,16.545Zm0-9.455a.727.727,0,1,1,.727-.727A.727.727,0,0,1,10,7.091ZM9.273,8.909a.727.727,0,0,1,1.455,0v4.727a.727.727,0,1,1-1.455,0Z" transform="translate(18 516)" fill="#3b3b3b"/>
  </g>
</svg>
