<svg xmlns="http://www.w3.org/2000/svg" width="13.844" height="12" viewBox="0 0 13.844 12"><path d="M13.382,12H.461A.462.462,0,0,1,0,11.538V7.847a.461.461,0,0,1,.923,0v3.23h12V7.847a.461.461,0,0,1,.923,0v3.692A.462.462,0,0,1,13.382,12Zm-6.46-3.23a.462.462,0,0,1-.461-.462V1.728L4.952,3.555a.461.461,0,0,1-.655,0,.467.467,0,0,1,0-.658L6.579.132A.452.452,0,0,1,6.9,0h.055A.454.454,0,0,1,7.28.132L9.561,2.9a.468.468,0,0,1,0,.658.462.462,0,0,1-.655,0L7.384,1.71v6.6A.462.462,0,0,1,6.922,8.769Z" transform="translate(0 0)" fill="#333"/></svg>