<svg id="ic_success" xmlns="http://www.w3.org/2000/svg" width="120" height="120" viewBox="0 0 120 120">
  <path id="Shape" d="M60,120a59.721,59.721,0,0,1-33.547-10.247,60.174,60.174,0,0,1-21.738-26.4,59.921,59.921,0,0,1,5.532-56.9,60.176,60.176,0,0,1,26.4-21.738,59.92,59.92,0,0,1,56.9,5.532,60.175,60.175,0,0,1,21.738,26.4,59.921,59.921,0,0,1-5.532,56.9,60.174,60.174,0,0,1-26.4,21.738A59.625,59.625,0,0,1,60,120ZM60,9.6a50.413,50.413,0,0,0-19.618,96.839A50.413,50.413,0,0,0,79.618,13.561,50.087,50.087,0,0,0,60,9.6ZM55.384,82.092a12.058,12.058,0,0,1-8.3-3.316l-.042-.04L32.114,64.167a4.678,4.678,0,1,1,6.535-6.7l14.9,14.544a2.626,2.626,0,0,0,1.823.721c.053,0,.11,0,.18-.006a2.654,2.654,0,0,0,1.841-.915L80.457,39.6a4.679,4.679,0,0,1,7.609,5.447L64.912,77.391c-.055.077-.107.145-.158.207a12.056,12.056,0,0,1-8.576,4.468C55.92,82.083,55.653,82.092,55.384,82.092Z" fill="#00a457"/>
</svg>
