<svg xmlns="http://www.w3.org/2000/svg" width="124.336" height="143.861" viewBox="0 0 124.336 143.861">
  <g id="Group_7227" data-name="Group 7227" transform="translate(-124 -307.807)">
    <g id="Taxi_logo" data-name="Taxi logo" transform="translate(-692.435 381.563)">
      <g id="Taxi_black_block_left" data-name="Taxi black block left">
        <rect id="Rectangle_1591" data-name="Rectangle 1591" width="11.336" height="11.337" transform="translate(850.435 58.77)" fill="#2f2f2f"/>
        <rect id="Rectangle_1592" data-name="Rectangle 1592" width="11.336" height="11.333" transform="translate(816.435 47.437)" fill="#2f2f2f"/>
        <rect id="Rectangle_1593" data-name="Rectangle 1593" width="11.331" height="11.337" transform="translate(827.771 58.77)" fill="#2f2f2f"/>
        <rect id="Rectangle_1594" data-name="Rectangle 1594" width="11.333" height="11.333" transform="translate(861.771 47.437)" fill="#2f2f2f"/>
        <rect id="Rectangle_1595" data-name="Rectangle 1595" width="11.333" height="11.333" transform="translate(839.102 47.437)" fill="#2f2f2f"/>
        <rect id="Rectangle_1596" data-name="Rectangle 1596" width="11.333" height="11.337" transform="translate(873.104 58.77)" fill="#2f2f2f"/>
        <rect id="Rectangle_1597" data-name="Rectangle 1597" width="11.334" height="11.333" transform="translate(884.437 47.437)" fill="#2f2f2f"/>
      </g>
      <g id="Taxi_black_blocks_right" data-name="Taxi black blocks right" transform="translate(45)">
        <g id="Group_4475" data-name="Group 4475">
          <rect id="Rectangle_1591-2" data-name="Rectangle 1591" width="11.336" height="11.337" transform="translate(850.435 58.77)" fill="#2f2f2f"/>
          <rect id="Rectangle_1592-2" data-name="Rectangle 1592" width="11.336" height="11.333" transform="translate(816.435 47.437)" fill="#2f2f2f"/>
          <rect id="Rectangle_1593-2" data-name="Rectangle 1593" width="11.331" height="11.337" transform="translate(827.771 58.77)" fill="#2f2f2f"/>
          <rect id="Rectangle_1594-2" data-name="Rectangle 1594" width="11.333" height="11.333" transform="translate(861.771 47.437)" fill="#2f2f2f"/>
          <rect id="Rectangle_1595-2" data-name="Rectangle 1595" width="11.333" height="11.333" transform="translate(839.102 47.437)" fill="#2f2f2f"/>
          <rect id="Rectangle_1596-2" data-name="Rectangle 1596" width="11.333" height="11.337" transform="translate(873.104 58.77)" fill="#2f2f2f"/>
          <rect id="Rectangle_1597-2" data-name="Rectangle 1597" width="11.334" height="11.333" transform="translate(884.437 47.437)" fill="#2f2f2f"/>
        </g>
      </g>
    </g>
    <g id="Company_Logo" data-name="Company Logo" transform="translate(132.753 286.838)">
      <g id="Group_4515" data-name="Group 4515" transform="translate(9.177 20.969)">
        <path id="Path_3223" data-name="Path 3223" d="M271.551,74.616,237.2,94.425v19.1l-3.49,2.01-7.035,4.02V88.393h.058l22.41-12.949,22.41-12.949,22.412,12.949,22.41,12.949v51.683l-22.41,12.948-22.412,12.948-22.41-12.948-22.41-12.948V127.3l44.82,26.551,34.3-19.809V94.425Z" transform="translate(-226.673 -62.495)" fill="#2f2f2f" fill-rule="evenodd"/>
        <path id="Path_3224" data-name="Path 3224" d="M226.9,238.585l10.527-6.09,6.148-3.49v12.772l-6.148,3.55L226.9,251.36Zm26.964-15.55,17.916-10.408-.06,12.891L253.86,235.807Z" transform="translate(-226.838 -173.779)" fill="#2f2f2f" fill-rule="evenodd"/>
        <path id="Path_3225" data-name="Path 3225" d="M319.483,148.648,301.627,159v20.578l17.857,10.348,17.858-10.348-17.858-10.289.06-12.891,17.8,10.113,10.349,5.911v13.126l-14.133,8.163-14.074,8.1-28.145-16.262v-32.52l28.145-16.261,14.074,8.1,14.133,8.161v11.886Z" transform="translate(-274.605 -117.546)" fill="#fff" fill-rule="evenodd"/>
      </g>
    </g>
  </g>
</svg>
