<svg xmlns="http://www.w3.org/2000/svg" xmlns:xlink="http://www.w3.org/1999/xlink" width="18" height="12" viewBox="0 0 18 12"><defs><clipPath id="a"><path d="M19-419.535A4,4,0,0,1,17-423a4,4,0,0,1,2-3.465V-427H5v.535A4,4,0,0,1,7-423a4,4,0,0,1-2,3.465V-419H19v-.535ZM21-420v-1a2,2,0,0,1-2-2,2,2,0,0,1,2-2v-4H3v4a2,2,0,0,1,2,2,2,2,0,0,1-2,2v4H21v-3Z" fill="#b7b7b7" clip-rule="evenodd"/></clipPath><clipPath id="b"><path d="M0-411H24v-24H0Z" fill="#b7b7b7"/></clipPath></defs><g transform="translate(-3 429)" clip-path="url(#a)"><g clip-path="url(#b)"><path d="M-2-434H26v22H-2Z" fill="#b7b7b7"/></g></g></svg>